<?xml version="1.0" encoding="utf-8" ?>
<svg xmlns="http://www.w3.org/2000/svg" xmlns:xlink="http://www.w3.org/1999/xlink" width="1289" height="1289">
	<path fill="#8CFAF2" transform="scale(2.51758 2.51758)" d="M252.558 231.998C267.563 230.31 282.398 241.809 279.941 257.856C279.068 258.028 279.582 259.738 276.646 259.872C272.307 257.281 248.444 235.419 252.993 232.279L252.709 231.995L252.558 231.998Z"/>
	<path fill="#8CFAF2" transform="scale(2.51758 2.51758)" d="M105.911 153.934C125.137 161.706 122.89 193.497 103.627 198.092C104.602 197.302 105.904 197.229 106.593 196.236C102.438 191.93 101.371 157.639 107.388 155.613L107.395 155.341C106.819 154.914 106.345 154.502 105.911 153.934Z"/>
	<path fill="#38FFFF" transform="scale(2.51758 2.51758)" d="M103.627 198.092C93.1853 204.516 78.3185 195.042 74.1001 184.53C66.419 165.388 86.5945 145.099 105.911 153.934C106.345 154.502 106.819 154.914 107.395 155.341L107.388 155.613C101.371 157.639 102.438 191.93 106.593 196.236C105.904 197.229 104.602 197.302 103.627 198.092Z"/>
	<defs>
		<linearGradient id="gradient_0" gradientUnits="userSpaceOnUse" x1="265.93823" y1="245.57736" x2="239.01714" y2="271.78793">
			<stop offset="0" stop-color="#7AFFEE"/>
			<stop offset="1" stop-color="#38D8F0"/>
		</linearGradient>
	</defs>
	<path fill="url(#gradient_0)" transform="scale(2.51758 2.51758)" d="M279.941 257.856C280.885 273.036 257.916 287.02 241.716 275.009C224.258 262.066 231.561 235.113 252.558 231.998L252.709 231.995L252.993 232.279C248.444 235.419 272.307 257.281 276.646 259.872C279.582 259.738 279.068 258.028 279.941 257.856Z"/>
	<path fill="#38FFFF" transform="scale(2.51758 2.51758)" d="M303.955 153.048C318.482 147.806 336.282 161.543 333.796 177.078C332.918 203.032 295.325 207.758 288.193 182.63C284.73 170.426 291.422 156.519 303.955 153.048Z"/>
	<path fill="#8CFAF2" transform="scale(2.51758 2.51758)" d="M303.955 153.048C318.482 147.806 336.282 161.543 333.796 177.078C333.341 173.694 333.441 170.174 331.917 167.045L331.952 167.222L331.343 166.917C328.914 168.341 326.142 165.662 323.443 166.644C323.926 166.97 325.835 168.624 324.066 167.865C323.432 167.593 308.78 159.861 315.865 161.824C314.925 159.369 311.922 156.434 311.937 153.799C311.952 151.146 305.673 153.237 303.955 153.048Z"/>
	<path fill="#AD61FF" transform="scale(2.51758 2.51758)" d="M413.881 311.354C446.042 309.878 447.915 358.253 416.911 359.484C384.721 360.597 382.211 314.31 413.881 311.354Z"/>
	<path fill="#38FFFF" transform="scale(2.51758 2.51758)" d="M96.2893 312.127C107.336 311.972 118.118 310.432 127.023 318.353C142.052 331.721 134.589 357.71 111.871 358.704L100.215 358.694C92.7171 358.632 86.9795 358.191 81.1042 352.996C64.6776 338.474 75.1009 313.458 96.2893 312.127Z"/>
	<path fill="#AD61FF" transform="scale(2.51758 2.51758)" d="M404.068 152.245C414.615 152.305 424.037 150.453 432.383 158.491C441.849 167.608 442.297 182.921 433.028 192.335C426.466 198.999 419.911 199.462 411.11 199.473L404.155 199.494C378.642 199.517 366.74 174.27 383.671 158.209C389.65 152.538 396.196 152.024 404.068 152.245Z"/>
	<path fill="#38FFFF" transform="scale(2.51758 2.51758)" d="M95.3685 231.998L169.377 231.991C172.963 231.993 176.688 231.79 180.243 232.289C203.892 235.607 210.126 273.121 178.561 279.26C173.477 279.542 168.247 279.275 163.145 279.269L109.495 279.262C99.9429 279.254 89.5442 280.323 81.6065 273.959C65.2611 260.853 72.7698 234.129 95.3685 231.998Z"/>
	<path fill="#AD61FF" transform="scale(2.51758 2.51758)" d="M333.796 392.258C347.855 391.717 362.669 392.497 376.802 392.36L403.318 392.25C411.404 392.219 420.612 390.986 427.889 395.327C446.504 406.432 442.171 434.361 418.811 439.967L358.798 439.963C347.791 439.963 331.724 441.916 322.89 435.7C304.394 422.685 312.566 395.721 333.796 392.258Z"/>
	<path fill="#38FFFF" transform="scale(2.51758 2.51758)" d="M166.381 393.316L248.329 393.293C252.336 393.289 256.558 392.992 260.504 393.747C278.137 397.122 284.13 420.634 271.553 433.143C264.353 440.304 256.386 439.964 246.868 439.969L185.125 439.967L105.921 439.973C101.594 439.973 97.1247 440.215 92.856 439.396C66.9992 434.438 67.7859 399.162 90.2435 394.068C96.6746 392.609 109.867 393.31 117.008 393.309L166.381 393.316Z"/>
	<path fill="#A3B7EC" transform="scale(2.51758 2.51758)" d="M255.897 72.0572C266.891 71.6396 278.814 72.0567 289.894 72.0576L397.33 72.0548C408.349 72.057 422.649 69.713 431.495 77.8601C448.593 93.6066 437.689 119.714 414.168 120.202C401.95 120.455 389.676 120.215 377.453 120.208L308.475 120.204C304.188 120.011 299.795 120.202 295.498 120.203L269.454 120.207C263.41 120.212 256.687 120.744 250.77 119.439C224.316 113.607 225.741 74.1268 255.897 72.0572Z"/>
	<path fill="#7DC9EE" transform="scale(2.51758 2.51758)" d="M308.475 120.204C304.188 120.011 299.795 120.202 295.498 120.203L269.454 120.207C263.41 120.212 256.687 120.744 250.77 119.439C224.316 113.607 225.741 74.1268 255.897 72.0572C258.512 72.3928 261.149 72.3201 263.779 72.3604L263.898 72.5248L264.01 72.4648C252.931 72.6108 240.94 73.6339 235.432 84.7524L235.624 85.6351L235.944 85.6623L236.45 85.1422C237.224 85.145 247.576 95.2902 248.143 96.277C250.455 100.304 248.113 101.503 252.558 106.741C252.479 107.398 252.033 109.341 252.279 109.853L253.004 109.031C256.823 111.385 261.707 118.834 263.308 119.336C272.104 122.096 312.365 118.036 314.499 119.606L314.263 119.609C312.325 119.653 310.389 119.912 308.475 120.204Z"/>
	<path fill="#38FFFF" transform="scale(2.51758 2.51758)" d="M94.2824 72.0572C95.0426 71.9803 95.8551 72.0057 96.621 72.0053L161.958 72.0472C179.797 72.0472 195.16 75.2588 199.435 96.3845C200.662 102.449 200.01 110.329 200.009 116.597L200.003 152.245L221.908 152.232C230.008 152.225 238.027 151.608 245.075 156.398C262.883 168.5 256.59 196.178 233.062 200.212C230.55 200.071 228.016 200.181 225.501 200.19L202.362 200.221C194.964 200.227 186.401 200.93 179.207 198.975C152.998 191.851 153.304 170.288 153.306 149.026L153.315 120.204C148.555 119.909 143.656 120.192 138.878 120.195L110.517 120.213C104.412 120.227 97.6254 120.712 91.6322 119.453C66.2648 114.126 66.2438 75.2032 94.2824 72.0572Z"/>
	<defs>
		<linearGradient id="gradient_1" gradientUnits="userSpaceOnUse" x1="390.22574" y1="200.99176" x2="218.45273" y2="390.01166">
			<stop offset="0" stop-color="#A4BEEC"/>
			<stop offset="1" stop-color="#3BE0E8"/>
		</linearGradient>
	</defs>
	<path fill="url(#gradient_1)" transform="scale(2.51758 2.51758)" d="M351.451 231.998C372.369 232.004 393.31 232.214 414.224 231.862C443.794 231.364 449.233 273.131 420.93 279.059C416.104 280.07 407.717 279.262 402.402 279.252L359.827 279.26C359.462 292.766 361.631 323.217 358.413 334.746C350.627 362.645 326.137 359.497 304.103 359.477L257.239 359.484L212.924 359.49C205.803 359.49 193.739 360.219 187.131 358.628C162.696 352.744 163.673 316.885 187.507 312.582C192.277 311.721 197.43 312.127 202.267 312.128L311.767 312.127L311.761 285.531C311.748 268.771 310.525 255.67 323.391 242.74C331.042 235.05 340.84 232.079 351.451 231.998Z"/>
</svg>
