<?xml version="1.0" encoding="utf-8" ?>
<svg xmlns="http://www.w3.org/2000/svg" xmlns:xlink="http://www.w3.org/1999/xlink" width="1289" height="1289">
	<path fill="#38FFFF" transform="matrix(2.51758 0 0 2.51758 0.000488281 0)" d="M343.22 279.493C332.225 283.547 320.002 282.998 311.183 274.321C293.161 256.588 308.406 225.865 334.793 229.627C337.616 230.03 340.334 231.137 343.22 231.059C344.578 233.707 347.577 235.1 349.683 237.075C364.904 251.345 357.103 268.309 343.22 279.493Z"/>
	<path fill="#38FFFF" transform="matrix(2.51758 0 0 2.51758 0.000488281 0)" d="M231.313 166.658C233.316 164.736 235.102 162.614 237.096 160.697C247.662 150.536 265.071 151.554 275.059 161.922C276.991 163.927 278.339 166.167 280.013 168.349C287.06 186.841 274.524 208.888 253.188 207.232C237.286 205.998 226.774 190.075 229.525 174.845C230.002 172.203 231.077 169.699 231.289 167.006L231.313 166.658Z"/>
	<path fill="#38FFFF" transform="matrix(2.51758 0 0 2.51758 0.000488281 0)" d="M232.366 344.448C232 342.121 231.066 339.958 230.376 337.717C223.992 316.984 245.548 297.577 265.872 305.855C279.843 311.546 286.692 327.439 281.012 341.512C271.852 355.393 257.93 364.005 241.784 353.376C237.974 350.868 235.731 347.314 232.366 344.448Z"/>
	<path fill="#38FFFF" transform="matrix(2.51758 0 0 2.51758 0.000488281 0)" d="M394.956 190.157C394.139 185.751 393.646 180.959 394.356 176.507C399.747 142.697 454.845 147.015 447.215 190.157C444.909 192.025 443.754 194.798 441.985 197.109C431.818 210.389 411.372 210.618 400.441 198.307C398.178 195.759 396.995 192.552 394.956 190.157Z"/>
	<path fill="#AD61FF" transform="matrix(2.51758 0 0 2.51758 0.000488281 0)" d="M64.3194 188.929C64.2571 185.774 63.9391 182.541 64.0938 179.395C65.8025 144.64 117.917 146.561 118.231 179.829C118.26 182.874 117.748 185.901 117.493 188.929C114.315 193.316 112.658 197.343 108.32 200.936C96.0218 211.125 78.0838 208.236 68.8153 195.536C67.3128 193.478 66.2098 191.183 64.5674 189.221L64.3194 188.929Z"/>
	<path fill="#38FFFF" transform="matrix(2.51758 0 0 2.51758 0.000488281 0)" d="M169.175 231.564C212.888 218.031 221.194 271.855 189.674 281.447C181.686 283.878 175.481 281.395 167.818 279.493C165.956 277.182 163.293 275.458 161.312 273.197C152.177 262.772 153.474 245.417 163.549 236.095C165.312 234.464 167.366 233.152 169.175 231.564Z"/>
	<defs>
		<linearGradient id="gradient_0" gradientUnits="userSpaceOnUse" x1="202.71893" y1="165.42699" x2="159.64403" y2="195.26428">
			<stop offset="0" stop-color="#35F8EA"/>
			<stop offset="1" stop-color="#43BBF5"/>
		</linearGradient>
	</defs>
	<path fill="url(#gradient_0)" transform="matrix(2.51758 0 0 2.51758 0.000488281 0)" d="M178.899 153.739C216.162 152.904 217.974 203.416 183.811 207.393C151.036 210.595 141.001 158.904 178.899 153.739Z"/>
	<path fill="#AD61FF" transform="matrix(2.51758 0 0 2.51758 0.000488281 0)" d="M64.3194 322.826C65.5547 320.987 66.4961 318.873 67.5853 316.935C73.557 306.309 86.7525 301.155 98.4146 304.453C108.397 307.276 112.67 313.147 117.493 321.761C123.05 347.922 97.4642 366.353 76.6303 352.734C64.7622 344.976 64.0121 335.233 64.3194 322.826Z"/>
	<path fill="#38FFFF" transform="matrix(2.51758 0 0 2.51758 0.000488281 0)" d="M191.601 117.412C181.63 117.902 173.848 119.906 165 112.733C145.02 96.5352 155.177 65.9425 180.389 64.3259C183.215 64.1447 186.041 64.5048 188.871 64.2114L189.241 64.1708C192.074 66.1758 194.311 67.3574 197.042 69.1526C210.546 78.0299 212.079 98.714 201.004 110.07C198.171 112.975 194.453 114.634 191.601 117.412Z"/>
	<path fill="#38FFFF" transform="matrix(2.51758 0 0 2.51758 0.000488281 0)" d="M417.8 64.1708C442.26 62.5207 458.787 92.3474 440.117 110.662C436.107 114.596 430.556 117.83 424.812 117.787C391.047 122.585 379.31 72.3573 417.8 64.1708Z"/>
	<path fill="#38FFFF" transform="matrix(2.51758 0 0 2.51758 0.000488281 0)" d="M325.353 64.1708L325.634 64.2166C336.453 65.8815 344.357 64.586 352.387 75.4457C361.423 87.6664 359.067 104.484 346.665 113.479C337.872 119.856 329.987 118.736 319.862 117.412C298.372 103.059 296.336 79.1338 320.95 66.3433C322.445 65.5663 323.707 64.64 325.353 64.1708Z"/>
	<path fill="#AD61FF" transform="matrix(2.51758 0 0 2.51758 0.000488281 0)" d="M89.9151 64.1708C130.001 65.315 124.333 118.128 93.401 117.787C60.1969 121.184 50.1588 69.453 89.9151 64.1708Z"/>
	<defs>
		<linearGradient id="gradient_1" gradientUnits="userSpaceOnUse" x1="350.69592" y1="163.11165" x2="310.39572" y2="198.09183">
			<stop offset="0" stop-color="#39FAE8"/>
			<stop offset="1" stop-color="#40C1F3"/>
		</linearGradient>
	</defs>
	<path fill="url(#gradient_1)" transform="matrix(2.51758 0 0 2.51758 0.000488281 0)" d="M327.849 153.739C358.723 148.677 372.794 199.319 334.94 207.393L334.714 207.435C300.804 213.516 289.451 159.756 327.849 153.739Z"/>
	<path fill="#38FFFF" transform="matrix(2.51758 0 0 2.51758 0.000488281 0)" d="M178.899 303.59C214.158 300.12 221.863 350.067 185.557 357.206C149.917 362.523 143.01 307.491 178.899 303.59Z"/>
	<path fill="#AD61FF" transform="matrix(2.51758 0 0 2.51758 0.000488281 0)" d="M87.8366 393.422C122.907 389.322 131.24 439.99 95.5064 446.973C60.6885 453.432 51.2379 398.127 87.8366 393.422Z"/>
	<defs>
		<linearGradient id="gradient_2" gradientUnits="userSpaceOnUse" x1="202.59511" y1="402.59479" x2="161.28448" y2="436.23535">
			<stop offset="0" stop-color="#3CF0EC"/>
			<stop offset="1" stop-color="#4ABBF8"/>
		</linearGradient>
	</defs>
	<path fill="url(#gradient_2)" transform="matrix(2.51758 0 0 2.51758 0.000488281 0)" d="M189.241 446.973C184.852 447.135 180.386 447.298 176.071 446.327C143.057 438.895 151.305 387.693 185.91 392.19C188.495 392.526 191.025 393.302 193.554 393.922C212.418 404.547 214.31 432.684 194.723 443.901C192.933 444.926 190.93 445.797 189.241 446.973Z"/>
	<path fill="#38FFFF" transform="matrix(2.51758 0 0 2.51758 0.000488281 0)" d="M321.01 393.922C324.255 393.998 327.438 393.562 330.668 393.568C345.884 393.598 358.674 405.603 358.143 421.07C357.527 438.97 338.993 451.632 322.011 446.973C320.839 446.121 319.205 445.546 317.908 444.855C306.778 438.931 300.927 427.081 303.68 414.576C305.82 404.858 313.029 399.052 321.01 393.922Z"/>
	<path fill="#38FFFF" transform="matrix(2.51758 0 0 2.51758 0.000488281 0)" d="M394.068 321.761C395.817 319.299 397.282 316.608 399.143 314.233C411.868 298 435.278 301.287 444.94 319.018C445.6 320.229 446.204 321.878 447.215 322.826C453.335 354.741 417.929 370.56 399.718 349.133C392.159 340.24 393.232 332.48 394.068 321.761Z"/>
	<defs>
		<linearGradient id="gradient_3" gradientUnits="userSpaceOnUse" x1="352.23877" y1="314.39209" x2="308.51959" y2="346.30435">
			<stop offset="0" stop-color="#38FBE9"/>
			<stop offset="1" stop-color="#46C1F4"/>
		</linearGradient>
	</defs>
	<path fill="url(#gradient_3)" transform="matrix(2.51758 0 0 2.51758 0.000488281 0)" d="M327.849 303.59C334.469 302.069 342.06 304.652 347.361 308.618C367.441 323.643 357.145 354.74 333.502 357.978C294.743 360.335 292.669 305.65 327.849 303.59Z"/>
	<path fill="#38FFFF" transform="matrix(2.51758 0 0 2.51758 0.000488281 0)" d="M417.8 392.316C448.882 388.334 463.318 437.781 424.812 447.752C388.177 451.764 379.971 398.813 417.8 392.316Z"/>
	<path fill="#ACF0F8" transform="matrix(2.51758 0 0 2.51758 0.000488281 0)" d="M189.241 64.1708C194.917 64.9345 205.801 64.1572 212.087 64.1659L309.573 64.167C314.873 64.1759 320.059 64.8166 325.353 64.1708C323.707 64.64 322.445 65.5663 320.95 66.3433C296.336 79.1338 298.372 103.059 319.862 117.412C317.577 118.206 285.524 117.984 281.012 117.787C280.461 129.351 282.332 158.886 280.013 168.349C278.339 166.167 276.991 163.927 275.059 161.922C265.071 151.554 247.662 150.536 237.096 160.697C235.102 162.614 233.316 164.736 231.313 166.658C231.589 161.527 231.313 156.469 231.32 151.334L231.313 117.787L208.599 117.795C202.979 117.794 197.198 117.909 191.601 117.412C194.453 114.634 198.171 112.975 201.004 110.07C212.079 98.714 210.546 78.0299 197.042 69.1526C194.311 67.3574 192.074 66.1758 189.241 64.1708Z"/>
	<path fill="#ACF0F8" transform="matrix(2.51758 0 0 2.51758 0.000488281 0)" d="M281.012 341.512C282.271 349.117 281.903 356.961 281.906 364.648L281.892 393.922L307.129 393.93C311.777 393.945 316.363 394.174 321.01 393.922C313.029 399.052 305.82 404.858 303.68 414.576C300.927 427.081 306.778 438.931 317.908 444.855C319.205 445.546 320.839 446.121 322.011 446.973C316.488 448.308 309.248 447.751 303.53 447.754L226.018 447.759C221.209 447.758 192.612 448.679 189.241 446.973C190.93 445.797 192.933 444.926 194.723 443.901C214.31 432.684 212.418 404.547 193.554 393.922C198.541 393.201 203.921 393.415 208.954 393.412L231.313 393.422C232.928 388.369 232.37 382.494 232.369 377.236L232.363 362.014C232.363 356.191 232.723 350.253 232.366 344.448C235.731 347.314 237.974 350.868 241.784 353.376C257.93 364.005 271.852 355.393 281.012 341.512Z"/>
	<defs>
		<linearGradient id="gradient_4" gradientUnits="userSpaceOnUse" x1="59.42379" y1="257.97211" x2="168.94411" y2="248.56783">
			<stop offset="0" stop-color="#BAD7FA"/>
			<stop offset="1" stop-color="#A2F0F7"/>
		</linearGradient>
	</defs>
	<path fill="url(#gradient_4)" transform="matrix(2.51758 0 0 2.51758 0.000488281 0)" d="M64.3194 188.929L64.5674 189.221C66.2098 191.183 67.3128 193.478 68.8153 195.536C78.0838 208.236 96.0218 211.125 108.32 200.936C112.658 197.343 114.315 193.316 117.493 188.929C118.815 192.646 118.172 224.391 118.165 231.059L150.6 231.05C156.365 231.052 163.586 230.551 169.175 231.564C167.366 233.152 165.312 234.464 163.549 236.095C153.474 245.417 152.177 262.772 161.312 273.197C163.293 275.458 165.956 277.182 167.818 279.493C151.06 281.151 134.481 279.05 118.165 280.028C118.173 286.95 118.808 317.749 117.493 321.761C112.67 313.147 108.397 307.276 98.4146 304.453C86.7525 301.155 73.557 306.309 67.5853 316.935C66.4961 318.873 65.5547 320.987 64.3194 322.826C63.8413 319.715 64.2905 315.996 64.2993 312.809L64.3273 201.875C64.3456 197.548 64.5208 193.256 64.3194 188.929Z"/>
	<path fill="#ACF0F8" transform="matrix(2.51758 0 0 2.51758 0.000488281 0)" d="M394.956 190.157C396.995 192.552 398.178 195.759 400.441 198.307C411.372 210.618 431.818 210.389 441.985 197.109C443.754 194.798 444.909 192.025 447.215 190.157C448.416 194.89 448.021 206.082 448.02 211.394L448.012 288.412C448.012 299.893 448.302 311.382 447.215 322.826C446.204 321.878 445.6 320.229 444.94 319.018C435.278 301.287 411.868 298 399.143 314.233C397.282 316.608 395.817 319.299 394.068 321.761C393.839 318.999 394.074 315.922 394.072 313.128L394.086 293.633C394.085 289.575 394.398 284.796 393.26 280.899C379.831 277.22 353.769 282.874 343.22 279.493C357.103 268.309 364.904 251.345 349.683 237.075C347.577 235.1 344.578 233.707 343.22 231.059C358.059 229.887 377.997 231.051 393.26 231.059C396.26 220.44 392.146 202.7 394.956 190.157Z"/>
</svg>
