<?xml version="1.0" encoding="utf-8" ?>
<svg xmlns="http://www.w3.org/2000/svg" xmlns:xlink="http://www.w3.org/1999/xlink" width="1289" height="1289">
	<path fill="#38FFFF" transform="scale(2.51758 2.51758)" d="M87.4234 226.096C100.003 224.859 113.511 237.752 120.176 246.902C130.61 261.225 106.143 282.169 95.1909 284.675C54.1358 291.647 45.4356 230.015 87.4234 226.096Z"/>
	<path fill="#AD61FF" transform="scale(2.51758 2.51758)" d="M420.164 226.096C434.472 222.797 448.936 236.249 451.96 249.444C455.248 263.794 445.835 279.574 431.906 283.999C428.911 284.951 425.698 285.416 422.625 286.097C417.551 284.882 412.116 283.927 407.956 280.549C401.819 275.564 389.959 264.877 389.172 256.312C388.123 244.901 408.455 227.016 420.164 226.096Z"/>
	<path fill="#38FFFF" transform="scale(2.51758 2.51758)" d="M252.062 60.3328C275.946 56.7958 295.527 85.0137 282.01 103.808C277.494 110.087 267.363 121.261 259.061 122.578C248.533 124.189 244.879 119.646 238.254 112.921C232.339 106.918 227.132 103.189 225.572 94.326C222.523 77.0171 235.571 63.0601 252.062 60.3328Z"/>
	<path fill="#38FFFF" transform="scale(2.51758 2.51758)" d="M253.564 166.299C265.64 165.067 280.755 181.721 285.203 190.591C293.613 207.362 271.66 230.569 257.061 231.935C245.29 232.389 233.792 221.149 227.776 212.172C217.979 197.551 226.492 188.594 235.865 179.001C241.84 172.887 244.862 168.259 253.564 166.299Z"/>
	<path fill="#38FFFF" transform="scale(2.51758 2.51758)" d="M253.564 388.295C268.299 387.512 285.096 405.008 286.974 418.653C289.314 435.655 275.371 450.192 259.061 452.168C234.529 454.544 216.205 426.723 228.889 407.679C232.943 401.592 245.406 389.867 253.564 388.295Z"/>
	<path fill="#38FFFF" transform="scale(2.51758 2.51758)" d="M199.874 223.826C206.013 223.338 211.206 225.797 215.621 229.967C230.512 244.031 242.202 254.635 223.707 272.656C216.106 280.062 211.821 286.651 199.874 286.823C189.993 286.737 186.395 282.878 179.841 276.067C166.221 261.915 158.701 255.544 175.568 238.834L183.83 230.657C188.728 225.87 192.971 223.747 199.874 223.826Z"/>
	<defs>
		<linearGradient id="gradient_0" gradientUnits="userSpaceOnUse" x1="279.24667" y1="254.80635" x2="345.75494" y2="254.94902">
			<stop offset="0" stop-color="#52D4F9"/>
			<stop offset="1" stop-color="#72B0FF"/>
		</linearGradient>
	</defs>
	<path fill="url(#gradient_0)" transform="scale(2.51758 2.51758)" d="M308.085 223.826C312.925 223.313 318.269 223.729 322.59 226.187C326.148 228.211 341.53 243.141 344.102 246.719C351.775 257.39 341.96 265.935 335.319 272.523C329.546 278.25 325.237 283.846 317.14 286.097C311.006 287.136 304.165 286.364 298.968 282.781C286.884 274.447 271.784 258.81 282.383 243.525C287.62 235.971 298.352 225.533 308.085 223.826Z"/>
	<path fill="#38FFFF" transform="scale(2.51758 2.51758)" d="M253.564 279.597C263.428 277.568 268.688 283.385 275.192 289.536C293.504 306.855 293.12 315.25 274.752 333.752C269.336 339.207 266.665 343.135 259.061 345.317C248.637 347.311 242.753 339.723 236.259 333.229C219.124 316.097 219.357 306.019 236.969 289.175C242.272 284.103 245.795 279.948 253.564 279.597Z"/>
	<defs>
		<linearGradient id="gradient_1" gradientUnits="userSpaceOnUse" x1="401.49573" y1="339.4761" x2="278.29178" y2="347.57953">
			<stop offset="0" stop-color="#AE5EFF"/>
			<stop offset="1" stop-color="#63BFFE"/>
		</linearGradient>
	</defs>
	<path fill="url(#gradient_1)" transform="scale(2.51758 2.51758)" d="M325.61 341.374C332.083 344.897 335.692 356.041 343.971 353.635C349.324 352.08 356.188 344.695 354.13 338.64C352.846 334.863 348.43 332.321 345.764 329.512C323.59 306.158 350.913 267.628 381.991 282.575C396.245 289.43 402.435 307.662 395.22 321.767C389.607 332.737 373.289 336.125 387.586 349.658C395.448 357.1 403.47 363.758 404 375.409C405.21 402.036 371.192 413.669 354.361 394.076C349.279 388.16 343.521 374.364 333.211 386.059C307.192 419.25 262.817 378.295 285.891 348.832C294.839 337.406 313.725 332.064 325.61 341.374Z"/>
	<defs>
		<linearGradient id="gradient_2" gradientUnits="userSpaceOnUse" x1="106.6432" y1="343.88641" x2="229.24158" y2="334.37866">
			<stop offset="0" stop-color="#2EF1E1"/>
			<stop offset="1" stop-color="#64CDFE"/>
		</linearGradient>
	</defs>
	<path fill="url(#gradient_2)" transform="scale(2.51758 2.51758)" d="M141.687 279.597C156.768 277.61 171.851 289.099 175.403 303.583C181.238 327.38 155.904 332.852 158.843 341.715C159.971 345.117 165.937 350.352 169.104 351.911L169.688 351.867C176.129 351.388 179.109 345.339 183.923 341.809C198.479 331.138 216.802 335.881 226.986 350.004C242.757 371.877 223.504 402.29 195.762 397.561C190.252 396.073 184.685 393.42 180.616 389.333C173.117 381.804 170.998 378.565 162.853 386.938C156.017 393.965 149.814 401.21 139.411 402.23C124.227 403.717 110.103 393.3 108.869 377.693C107.459 359.873 121.731 354.305 130.533 343.608C135.762 337.253 124.056 331.398 120.426 327.002C104.769 308.04 118.7 281.756 141.687 279.597Z"/>
	<defs>
		<linearGradient id="gradient_3" gradientUnits="userSpaceOnUse" x1="407.90125" y1="159.59557" x2="286.5621" y2="181.07819">
			<stop offset="0" stop-color="#B35CFD"/>
			<stop offset="1" stop-color="#75A7FF"/>
		</linearGradient>
	</defs>
	<path fill="url(#gradient_3)" transform="scale(2.51758 2.51758)" d="M374.435 107.83C389.304 104.581 404 121.203 403.777 135.994C403.48 155.715 382.575 161.565 382.716 171.203C382.844 180.019 398.953 183.079 399.186 200.472C399.417 217.631 385.025 230.77 368.233 230.975C341.51 231.301 326.892 200.818 346.981 180.648C356.933 171.721 355.015 168.51 345.476 160.014C338.235 153.565 331.371 166.09 325.834 170.057C306.628 183.818 281.151 166.995 280.111 145.219C278.881 119.445 309.189 102.12 328.734 119.659C332.36 122.913 336.894 129.987 342.557 128.424C351.415 125.98 355.991 108.709 374.435 107.83Z"/>
	<path fill="#38FFFF" transform="scale(2.51758 2.51758)" d="M132.709 107.83C155.837 104.885 157.71 125.383 170.033 129.33C180.65 127.206 181.826 113.844 199.843 113.204C242.553 111.688 240.994 174.047 201.995 174.468C177.459 174.733 178.482 147.479 161.817 165.197C156.525 170.823 160.145 175.236 164.9 179.574C196.207 209.251 155.154 247.494 125.251 225.77C112.05 216.179 108.976 195.272 120.95 183.469C129.858 174.688 135.376 171.473 123.201 160.845C116.543 155.033 110.664 149.778 109.068 140.517C106.377 124.898 117.216 110.362 132.709 107.83Z"/>
</svg>
